<?xml version="1.0" encoding="utf-8"?>
<!-- Generator: Adobe Illustrator 15.0.2, SVG Export Plug-In . SVG Version: 6.00 Build 0)  -->
<!DOCTYPE svg PUBLIC "-//W3C//DTD SVG 1.1//EN" "http://www.w3.org/Graphics/SVG/1.1/DTD/svg11.dtd">
<svg version="1.1" xmlns="http://www.w3.org/2000/svg" xmlns:xlink="http://www.w3.org/1999/xlink" x="0px" y="0px" width="30px"
	 height="29px" viewBox="0 0 30 29" enable-background="new 0 0 30 29" xml:space="preserve">
<g id="map_pin_copie_2_1_" opacity="0.6" enable-background="new    ">
	<g id="map_pin_copie_2" opacity="0.15">
		<g>
			<path fill-rule="evenodd" clip-rule="evenodd" fill="#0D2137" d="M21.082,24.471c0,0-0.054-2.139-1.368-3.153
				c-2.95-2.276-9.418-4.122-14.446-4.122s-6.713,1.846-3.763,4.122c1.295,1,7.168,3.153,7.168,3.153s6.299,2.541,9.952,3.922
				c1.015,0.384,2.423,0.346,2.373-0.029C20.807,26.913,21.082,24.471,21.082,24.471z M12.794,23.003
				c-2.636,0-5.926-0.89-7.349-1.987c-1.423-1.099-0.439-1.988,2.197-1.988c2.636,0,5.927,0.89,7.35,1.988
				C16.414,22.113,15.43,23.003,12.794,23.003z"/>
		</g>
	</g>
</g>
<g id="map_pin_xA0_Image_1_">
	<path id="location-icon" fill="#808D8E" d="M20.131,0.5c-4.898,0-8.869,3.971-8.869,8.869S15.144,19.96,20.131,28.5
		C25.118,19.96,29,14.268,29,9.369S25.029,0.5,20.131,0.5z M20,12.334c-1.757,0-3.181-1.424-3.181-3.18
		c0-1.757,1.424-3.181,3.181-3.181s3.181,1.424,3.181,3.181C23.181,10.91,21.757,12.334,20,12.334z"/>
</g>
</svg>
