<?xml version="1.0" encoding="utf-8"?>
<!-- Generator: Adobe Illustrator 15.0.2, SVG Export Plug-In . SVG Version: 6.00 Build 0)  -->
<!DOCTYPE svg PUBLIC "-//W3C//DTD SVG 1.1//EN" "http://www.w3.org/Graphics/SVG/1.1/DTD/svg11.dtd">
<svg version="1.1" id="Forme_1_1_" xmlns="http://www.w3.org/2000/svg" xmlns:xlink="http://www.w3.org/1999/xlink" x="0px" y="0px"
	 width="51px" height="54px" viewBox="0 0 51 54" enable-background="new 0 0 51 54" xml:space="preserve">
<g id="Forme_1">
	<g>
		<path fill-rule="evenodd" clip-rule="evenodd" fill="#FFFFFF" d="M10.515,23.469c0.32,0,0.628-0.061,0.928-0.155V11.892
			c2.041-5.19,7.51-8.914,13.955-8.914c0.013,0,0.024,0.001,0.036,0.001v0.001h0.019V2.979c0.012,0,0.023-0.001,0.036-0.001
			c6.445,0,11.914,3.724,13.955,8.914v11.422c0.3,0.095,0.608,0.155,0.929,0.155c2.338,0,4.232-2.69,4.232-6.009
			c0-2.413-1.009-4.48-2.455-5.436C40.063,5.482,33.401,0.692,25.489,0.692c-0.016,0-0.03,0.002-0.045,0.003
			c-0.016-0.001-0.03-0.003-0.046-0.003c-7.912,0-14.575,4.79-16.661,11.332c-1.447,0.955-2.456,3.022-2.456,5.436
			C6.282,20.778,8.177,23.469,10.515,23.469z M37.797,18.334c0-6.847-5.551-12.397-12.398-12.397S13,11.487,13,18.334
			c0,6.848,5.551,12.398,12.398,12.398c5.413,0,10.003-3.474,11.694-8.31c-1.379,2.791-4.722,2.666-4.722,2.666s-3.714,0-4.442,0
			c-0.728,0-1.311-0.219-1.311-1.384s1.456-1.165,1.456-1.165h2.768c6.079,0,6.764-2.153,6.836-2.755
			c0.001-0.055,0.01-0.102,0.01-0.158c0,0,0.002,0.061-0.01,0.158c-0.002,0.131-0.021,0.245-0.029,0.37
			C37.736,19.559,37.797,18.954,37.797,18.334z M43.695,36.413h-11.58l-6.717,11.634l-6.717-11.634H7.866
			c-3.861,0-6.991,3.13-6.991,6.991v3.604C0.875,50.87,4.005,54,7.866,54h35.829c3.861,0,6.991-3.13,6.991-6.991v-3.604
			C50.687,39.543,47.557,36.413,43.695,36.413z"/>
	</g>
</g>
</svg>
