<?xml version="1.0" encoding="utf-8"?>
<!-- Generator: Adobe Illustrator 15.0.2, SVG Export Plug-In . SVG Version: 6.00 Build 0)  -->
<!DOCTYPE svg PUBLIC "-//W3C//DTD SVG 1.1//EN" "http://www.w3.org/Graphics/SVG/1.1/DTD/svg11.dtd">
<svg version="1.1" xmlns="http://www.w3.org/2000/svg" xmlns:xlink="http://www.w3.org/1999/xlink" x="0px" y="0px" width="30px"
	 height="24px" viewBox="0 0 30 24" enable-background="new 0 0 30 24" xml:space="preserve">
<g id="iphone_copie_1_" enable-background="new    ">
</g>
<g id="iphone_1_" enable-background="new    ">
	<path id="smartphone-4-icon_1_" opacity="0.15" fill="#0D2137" d="M10.286,12.083H1.11c-1.061,0-1.425,0.428-0.813,0.954
		l11.626,10.008c0.613,0.528,1.97,0.955,3.03,0.955h9.177c1.062,0,1.425-0.427,0.812-0.955L13.316,13.037
		C12.704,12.511,11.348,12.083,10.286,12.083z M5.694,12.957h2.154c0.129,0,0.293,0.052,0.368,0.116
		c0.074,0.063,0.03,0.115-0.099,0.115H5.963c-0.127,0-0.293-0.052-0.368-0.115C5.521,13.009,5.567,12.957,5.694,12.957z
		 M18.964,23.452c-0.515,0-1.173-0.208-1.468-0.462c-0.298-0.257-0.122-0.464,0.393-0.464s1.172,0.207,1.47,0.464
		C19.653,23.244,19.479,23.452,18.964,23.452z M22.3,22.026H12.201l-9.259-7.97h10.099L22.3,22.026z"/>
	<path id="smartphone-4-icon" fill="#808D8E" d="M26.712,0.021h-9.177c-1.061,0-1.921,0.859-1.921,1.92v20.138
		c0,1.062,0.86,1.921,1.921,1.921h9.177c1.062,0,1.921-0.859,1.921-1.921V1.941C28.633,0.88,27.773,0.021,26.712,0.021z
		 M21.104,1.779h2.154c0.129,0,0.233,0.104,0.233,0.233c0,0.128-0.104,0.233-0.233,0.233h-2.154c-0.127,0-0.233-0.104-0.233-0.233
		C20.871,1.883,20.978,1.779,21.104,1.779z M22.182,22.897c-0.515,0-0.932-0.418-0.932-0.93c0-0.516,0.417-0.933,0.932-0.933
		s0.931,0.417,0.931,0.933C23.112,22.479,22.696,22.897,22.182,22.897z M27.174,20.029H17.075V3.992h10.099V20.029z"/>
</g>
</svg>
