<?xml version="1.0" encoding="utf-8"?>
<!-- Generator: Adobe Illustrator 15.0.2, SVG Export Plug-In . SVG Version: 6.00 Build 0)  -->
<!DOCTYPE svg PUBLIC "-//W3C//DTD SVG 1.1//EN" "http://www.w3.org/Graphics/SVG/1.1/DTD/svg11.dtd">
<svg version="1.1" id="clipboard_3_1_" xmlns="http://www.w3.org/2000/svg" xmlns:xlink="http://www.w3.org/1999/xlink" x="0px"
	 y="0px" width="42px" height="55px" viewBox="0 0 42 55" enable-background="new 0 0 42 55" xml:space="preserve">
<g id="clipboard_3">
	<g>
		<path fill-rule="evenodd" clip-rule="evenodd" fill="#FFFFFF" d="M9.33,11.888c0,0.932,0,3.373,0,3.373h23.66c0,0,0-2.441,0-3.373
			s-0.757-1.688-1.69-1.688h-5.069c0,0,0.057-1.925,0.057-4.877c0-2.74-2.275-5.242-5.127-5.242s-5.049,2.38-5.049,5.227
			c0,2.74-0.021,4.893-0.021,4.893H11.02C10.086,10.2,9.33,10.956,9.33,11.888z M21.159,5.141c0.934,0,1.689,0.755,1.689,1.687
			s-0.756,1.688-1.689,1.688S19.47,7.759,19.47,6.827S20.226,5.141,21.159,5.141z M38.059,5.141h-10.14v3.374h8.45
			c0.933,0,1.689,0.755,1.689,1.687V49.1c0,0.932-0.757,1.687-1.689,1.687H5.949c-0.933,0-1.689-0.755-1.689-1.687V10.201
			c0-0.932,0.756-1.687,1.689-1.687h8.45V5.141H4.26c-1.867,0-3.38,1.511-3.38,3.374v42.271c0,1.863,1.514,3.373,3.38,3.373h33.799
			c1.867,0,3.38-1.51,3.38-3.373V8.515C41.438,6.651,39.926,5.141,38.059,5.141z M5.949,10.2V49.1h30.42V10.2h-1.69v6.853H7.639
			V10.2H5.949z M14.399,22.113h16.899V23.8H14.399V22.113z M14.399,25.486h16.899v1.687H14.399V25.486z M14.399,28.859h16.899v1.687
			H14.399V28.859z M14.399,32.232h16.899v1.688H14.399V32.232z M14.399,35.606h16.899v1.687H14.399V35.606z M14.399,38.979h16.899
			v1.687H14.399V38.979z M14.399,42.353h16.899v1.688H14.399V42.353z M11.02,22.113h1.689V23.8H11.02V22.113z M11.02,25.486h1.689
			v1.687H11.02V25.486z M11.02,28.859h1.689v1.687H11.02V28.859z M11.02,32.232h1.689v1.688H11.02V32.232z M11.02,35.606h1.689
			v1.687H11.02V35.606z M11.02,38.979h1.689v1.687H11.02V38.979z M11.02,42.353h1.689v1.688H11.02V42.353z"/>
	</g>
</g>
</svg>
