<?xml version="1.0" encoding="utf-8"?>
<!-- Generator: Adobe Illustrator 15.0.2, SVG Export Plug-In . SVG Version: 6.00 Build 0)  -->
<!DOCTYPE svg PUBLIC "-//W3C//DTD SVG 1.1//EN" "http://www.w3.org/Graphics/SVG/1.1/DTD/svg11.dtd">
<svg version="1.1" id="Forme_233_copie_4_xA0_Image_1_"
	 xmlns="http://www.w3.org/2000/svg" xmlns:xlink="http://www.w3.org/1999/xlink" x="0px" y="0px" width="100px" height="800px"
	 viewBox="0 0 100 800" enable-background="new 0 0 100 800" xml:space="preserve">
<g>
	<g>
		<path fill="#808E8F" d="M41.059,362.357l-1.438-3.41l-1.77,0.273l-0.723-1.703l3.549-0.551l-2.475-15.965l-12.418,1.924
			c0,0-0.682,2.557-0.709,5.561c-0.904,0.141-1.695,0.262-2.014,0.313c-0.98,0.15-1.65,1.068-1.5,2.049l0.275,1.773
			c0.152,0.979,1.07,1.65,2.049,1.498c0.318-0.049,1.109-0.172,2.014-0.313c0.936,2.855,2.359,5.084,2.359,5.084l3.549-0.549
			l5.729,13.529l5.322-0.824l-3.564-8.416L41.059,362.357z"/>
		<path fill="#808E8F" d="M74.412,343.746c-0.373-2.408-2.914-4.01-5.326-3.703l-2.23-14.381c-0.15-0.98-0.717-1.705-2.049-1.5
			c-0.295,0.047-0.926,0.787-1.678,1.873l5.836,37.648c1.045,0.809,1.871,1.324,2.166,1.277c1.221-0.188,1.65-1.068,1.5-2.049
			l-2.174-14.025C72.848,348.447,74.785,346.152,74.412,343.746z"/>
		<path fill="#808E8F" d="M39.971,340.689c0,0,2.596,16.021,2.486,16.039c12.18-1.889,20.229,2.34,24.605,5.416l-5.281-34.064
			C58.543,332.336,52.152,338.803,39.971,340.689z"/>
	</g>
	<g>
		<path fill="none" stroke="#808E8F" stroke-miterlimit="10" d="M95.5,378.875c0,9.18-7.443,16.625-16.625,16.625H17.124
			c-9.181,0-16.625-7.445-16.625-16.625v-61.75c0-9.182,7.443-16.625,16.625-16.625h61.751c9.182,0,16.625,7.443,16.625,16.625
			V378.875z"/>
	</g>
	<path fill="#808E8F" d="M60.617,242.127c0-10.697-8.941-19.37-19.971-19.37c-11.029,0-19.971,8.673-19.971,19.37
		c0,6.429,3.229,12.126,8.199,15.649c-0.014,0.057-3.96,9.414-3.96,9.414s12.051-5.989,12.084-6.016
		c1.183,0.211,2.401,0.322,3.647,0.322C51.676,261.497,60.617,252.825,60.617,242.127z M75.324,248.181
		c0-10.698-8.42-19.295-17.533-19.37c13.064,16.96-2.322,35.032-14.862,35.032c0,0,1.395,3.707,12.424,3.707
		c1.244,0,2.463-0.11,3.646-0.322c0.033,0.027,12.084,6.017,12.084,6.017s-3.947-9.358-3.961-9.414
		C72.094,260.307,75.324,254.608,75.324,248.181z"/>
	<path fill="none" stroke="#808E8F" stroke-miterlimit="10" d="M95.5,278.875c0,9.181-7.443,16.625-16.625,16.625h-61.75
		c-9.182,0-16.625-7.444-16.625-16.625v-61.75c0-9.182,7.443-16.625,16.625-16.625h61.75c9.182,0,16.625,7.443,16.625,16.625
		V278.875z"/>
	<g id="mouse_copie_xA0_Masque_2_">
		<g>
			<path fill="#808E8F" d="M41.625,24.885c3.088-0.987,5.216,0.345,6.265,3.625l2.058-0.658l0.029-0.01
				c-1.494-4.67-4.509-6.486-8.926-5.073c-3.857,1.233-6.112,4.76-6.762,10.579l-0.227,1.969c-0.33,3.111-0.813,5.298-1.45,6.557
				c-0.638,1.261-1.697,2.127-3.178,2.601c-1.958,0.626-3.677,0.066-5.16-1.681c-0.81-0.943-1.433-1.346-1.866-1.208
				c-0.643,0.206-0.854,0.651-0.636,1.336c0.442,1.384,1.54,2.457,3.294,3.221c1.753,0.765,3.419,0.894,4.999,0.389
				c3.912-1.25,6.001-4.952,6.268-11.105l0.047-1.078C36.607,29.085,38.355,25.931,41.625,24.885z M49.863,29.262l3.221,10.071
				c1.873-0.6,3.877,0.434,4.477,2.308l0.508,1.59l10.283-3.288c-0.125-0.391-0.514-1.607-1.592-4.982
				c-2.102-6.573-8.131-8.618-13.645-6.855C47.602,29.867,49.863,29.262,49.863,29.262z M52.777,41.3
				c-1.404,0.449-2.18,1.953-1.73,3.358l1.627,5.089c0.449,1.405,1.953,2.18,3.357,1.73c1.406-0.449,2.18-1.952,1.73-3.358
				l-1.627-5.088C55.686,41.625,54.184,40.851,52.777,41.3z M49.186,44.318c-0.6-1.874,0.434-3.878,2.306-4.478L48.273,29.77
				c0,0,2.086-0.783-3.427,0.979c-5.513,1.764-9.131,6.893-7.029,13.466c1.079,3.375,1.469,4.592,1.594,4.982l10.283-3.288
				L49.186,44.318z M73.811,57.011l-4.883-15.266l-10.283,3.288l1.086,3.393c0.598,1.873-0.436,3.878-2.309,4.477l-1.695,0.543
				c-1.875,0.599-3.771-0.469-4.371-2.342l-1.086-3.393l-10.283,3.288l4.881,15.266c1.797,5.62,7.81,8.72,13.431,6.923l8.48-2.711
				C72.4,68.679,75.607,62.632,73.811,57.011z"/>
		</g>
	</g>
	<path fill="none" stroke="#808E8F" stroke-miterlimit="10" d="M95.5,78.875c0,9.18-7.443,16.625-16.625,16.625h-61.75
		C7.943,95.5,0.5,88.055,0.5,78.875v-61.75C0.5,7.943,7.943,0.5,17.125,0.5h61.75C88.057,0.5,95.5,7.943,95.5,17.125V78.875z"/>
	<path fill="none" stroke="#808E8F" stroke-miterlimit="10" d="M95.5,178.875c0,9.182-7.441,16.625-16.625,16.625h-61.75
		c-9.182,0-16.625-7.443-16.625-16.625v-61.75c0-9.182,7.443-16.625,16.625-16.625h61.75c9.184,0,16.625,7.443,16.625,16.625
		V178.875z"/>
	<path fill="#808E8F" d="M68.932,128.934c-6.25-6.25-12.035-1.01-12.035-1.01l-19.229,19.229c0,0-5.779,4.691-0.538,9.934
		c5.24,5.24,9.854-0.617,9.854-0.617l12.707-12.707c0,0,1.941-1.475,0.467-2.949s-2.912,0.428-2.912,0.428l-11.543,11.541
		c0,0-3.48,4.49-6.12,1.773s1.772-6.121,1.772-6.121l16.162-16.162c0,0,4.543-5.008,8.813-0.736c4.27,4.27-0.75,8.824-0.75,8.824
		L43.697,162.24c0,0-7,8.088-13.482,1.605c-6.483-6.482,1.682-13.406,1.682-13.406l16.615-16.615c0,0,1.864-1.553,0.467-2.949
		c-1.398-1.398-2.951,0.465-2.951,0.465L26.967,150.4c0,0-7.195,7.895,0.841,15.93c8.035,8.035,15.929,0.84,15.929,0.84
		l26.205-26.203C69.941,140.967,75.182,135.184,68.932,128.934z"/>
	<g>
		<path fill="#808E8F" d="M41.059,762.357l-1.438-3.41l-1.77,0.273l-0.723-1.703l3.549-0.551l-2.475-15.965l-12.418,1.924
			c0,0-0.682,2.557-0.709,5.561c-0.904,0.141-1.695,0.262-2.014,0.313c-0.98,0.15-1.65,1.068-1.5,2.049l0.275,1.773
			c0.152,0.979,1.07,1.65,2.049,1.498c0.318-0.049,1.109-0.172,2.014-0.313c0.936,2.855,2.359,5.084,2.359,5.084l3.549-0.549
			l5.729,13.529l5.322-0.824l-3.564-8.416L41.059,762.357z"/>
		<path fill="#808E8F" d="M74.412,743.746c-0.373-2.408-2.914-4.01-5.326-3.703l-2.23-14.381c-0.15-0.98-0.717-1.705-2.049-1.5
			c-0.295,0.047-0.926,0.787-1.678,1.873l5.836,37.648c1.045,0.809,1.871,1.324,2.166,1.277c1.221-0.188,1.65-1.068,1.5-2.049
			l-2.174-14.025C72.848,748.447,74.785,746.152,74.412,743.746z"/>
		<path fill="#808E8F" d="M39.971,740.689c0,0,2.596,16.021,2.486,16.039c12.179-1.889,20.228,2.34,24.605,5.416l-5.281-34.064
			C58.543,732.336,52.152,738.803,39.971,740.689z"/>
	</g>
	<g>
		<path fill="none" stroke="#1F7FBC" stroke-miterlimit="10" d="M95.5,778.875c0,9.18-7.443,16.625-16.625,16.625h-61.75
			c-9.181,0-16.625-7.445-16.625-16.625v-61.75c0-9.182,7.443-16.625,16.625-16.625h61.75c9.182,0,16.625,7.443,16.625,16.625
			V778.875z"/>
	</g>
	<path fill="#808E8F" d="M60.617,642.127c0-10.697-8.941-19.371-19.971-19.371s-19.971,8.674-19.971,19.371
		c0,6.428,3.229,12.125,8.199,15.648c-0.014,0.057-3.96,9.414-3.96,9.414s12.051-5.988,12.084-6.016
		c1.183,0.211,2.401,0.322,3.647,0.322C51.676,661.496,60.617,652.824,60.617,642.127z M75.324,648.18
		c0-10.697-8.418-19.295-17.531-19.369c13.063,16.959-2.322,35.031-14.863,35.031c0,0,1.395,3.707,12.424,3.707
		c1.246,0,2.465-0.109,3.646-0.322c0.035,0.027,12.084,6.018,12.084,6.018s-3.945-9.359-3.959-9.414
		C72.096,660.307,75.324,654.607,75.324,648.18z"/>
	<path fill="none" stroke="#EB4738" stroke-miterlimit="10" d="M95.5,678.875c0,9.18-7.441,16.625-16.625,16.625h-61.75
		c-9.182,0-16.625-7.445-16.625-16.625v-61.75c0-9.182,7.443-16.625,16.625-16.625h61.75c9.184,0,16.625,7.443,16.625,16.625
		V678.875z"/>
	<g id="mouse_copie_xA0_Masque_1_">
		<g>
			<path fill="#808E8F" d="M52.779,441.299c-1.406,0.449-2.182,1.953-1.732,3.359l1.627,5.088c0.451,1.406,1.953,2.18,3.359,1.73
				c1.404-0.449,2.18-1.951,1.73-3.357l-1.627-5.088C55.688,441.625,54.184,440.85,52.779,441.299z M49.863,429.262l3.221,10.07
				c1.873-0.6,3.879,0.434,4.477,2.309l0.51,1.59l10.283-3.289c-0.125-0.391-0.514-1.607-1.594-4.982
				c-2.102-6.572-8.131-8.617-13.643-6.855C47.603,429.867,49.863,429.262,49.863,429.262z M41.625,424.885
				c3.088-0.988,5.216,0.344,6.265,3.625l2.057-0.658l0.029-0.01c-1.494-4.67-4.508-6.486-8.925-5.074
				c-3.857,1.234-6.112,4.76-6.762,10.58l-0.227,1.969c-0.33,3.111-0.813,5.297-1.45,6.557c-0.638,1.26-1.697,2.127-3.178,2.6
				c-1.958,0.627-3.677,0.066-5.16-1.68c-0.81-0.943-1.433-1.346-1.866-1.209c-0.643,0.207-0.854,0.652-0.636,1.336
				c0.442,1.385,1.54,2.457,3.294,3.221c1.753,0.766,3.419,0.895,4.999,0.389c3.912-1.25,6.001-4.951,6.268-11.105l0.047-1.078
				C36.607,429.084,38.355,425.93,41.625,424.885z M49.187,444.318c-0.6-1.875,0.434-3.879,2.307-4.479l-3.221-10.07
				c0,0,2.086-0.783-3.426,0.979c-5.513,1.764-9.131,6.893-7.029,13.465c1.079,3.375,1.469,4.592,1.594,4.982l10.284-3.287
				L49.187,444.318z M73.811,457.01l-4.881-15.266l-10.283,3.289l1.084,3.393c0.6,1.873-0.434,3.877-2.307,4.477l-1.697,0.543
				c-1.873,0.598-3.771-0.469-4.371-2.342l-1.084-3.393l-10.284,3.287l4.881,15.266c1.797,5.621,7.812,8.721,13.433,6.924
				l8.48-2.711C72.402,468.678,75.607,462.631,73.811,457.01z"/>
		</g>
	</g>
	<path fill="none" stroke="#EB4738" stroke-miterlimit="10" d="M95.5,478.875c0,9.18-7.441,16.625-16.625,16.625h-61.75
		c-9.182,0-16.625-7.445-16.625-16.625v-61.75c0-9.182,7.443-16.625,16.625-16.625h61.75c9.184,0,16.625,7.443,16.625,16.625
		V478.875z"/>
	<path fill="none" stroke="#1F7FBC" stroke-miterlimit="10" d="M95.5,578.875c0,9.182-7.441,16.625-16.625,16.625h-61.75
		c-9.182,0-16.625-7.443-16.625-16.625v-61.75c0-9.182,7.443-16.625,16.625-16.625h61.75c9.184,0,16.625,7.443,16.625,16.625
		V578.875z"/>
	<path fill="#808E8F" d="M68.932,528.934c-6.25-6.25-12.035-1.01-12.035-1.01l-19.228,19.229c0,0-5.779,4.691-0.538,9.934
		c5.24,5.24,9.854-0.617,9.854-0.617l12.707-12.707c0,0,1.941-1.475,0.467-2.949s-2.912,0.428-2.912,0.428l-11.542,11.541
		c0,0-3.48,4.49-6.12,1.773s1.772-6.121,1.772-6.121l16.162-16.162c0,0,4.543-5.008,8.813-0.736c4.27,4.27-0.75,8.824-0.75,8.824
		L43.698,562.24c0,0-7,8.088-13.482,1.605c-6.483-6.482,1.682-13.406,1.682-13.406l16.615-16.615c0,0,1.863-1.553,0.466-2.949
		c-1.397-1.398-2.95,0.465-2.95,0.465L26.967,550.4c0,0-7.195,7.895,0.841,15.93c8.035,8.035,15.929,0.84,15.929,0.84l26.205-26.203
		C69.941,540.967,75.182,535.184,68.932,528.934z"/>
</g>
</svg>
