<?xml version="1.0" encoding="utf-8"?>
<!-- Generator: Adobe Illustrator 15.0.2, SVG Export Plug-In . SVG Version: 6.00 Build 0)  -->
<!DOCTYPE svg PUBLIC "-//W3C//DTD SVG 1.1//EN" "http://www.w3.org/Graphics/SVG/1.1/DTD/svg11.dtd">
<svg version="1.1" xmlns="http://www.w3.org/2000/svg" xmlns:xlink="http://www.w3.org/1999/xlink" x="0px" y="0px" width="27px"
	 height="23px" viewBox="0 0 27 23" enable-background="new 0 0 27 23" xml:space="preserve">
<g id="_x40__copie_1_" enable-background="new    ">
	<g id="_x40__copie" opacity="0.1">
		<g>
			<path fill-rule="evenodd" clip-rule="evenodd" fill="#0D2137" d="M20.844,16.65c-1.411-1.606-3.369-2.87-5.873-3.793
				c-2.504-0.924-5.284-1.385-8.338-1.385c-3.109,0-5.135,0.487-6.077,1.463c-0.941,0.976-0.687,2.295,0.765,3.959
				c1.474,1.679,3.524,3.002,6.151,3.968c2.627,0.965,5.519,1.448,8.675,1.448c0.773,0,1.521-0.046,2.242-0.137
				c0.722-0.092,1.266-0.219,1.634-0.381l-1.369-0.966c-0.412,0.108-0.938,0.198-1.575,0.271c-0.639,0.071-1.286,0.107-1.942,0.107
				c-2.359,0-4.539-0.386-6.539-1.157c-2-0.772-3.57-1.823-4.71-3.153c-1.188-1.365-1.466-2.443-0.833-3.234
				c0.633-0.791,2.13-1.188,4.489-1.188c2.43,0,4.578,0.368,6.445,1.103c1.867,0.735,3.367,1.76,4.5,3.075
				c0.546,0.636,0.755,1.162,0.627,1.579c-0.129,0.417-0.631,0.625-1.505,0.625c-0.22,0-0.453-0.063-0.703-0.188
				c-0.249-0.126-0.516-0.358-0.8-0.695l-2.553-3.293h-0.059l0.013-0.023c-0.888-0.209-1.667-0.364-2.338-0.465
				c-0.67-0.101-1.479-0.151-2.424-0.151c-1.344,0-2.206,0.293-2.587,0.879c-0.381,0.585-0.208,1.364,0.521,2.338
				c0.563,0.761,1.374,1.37,2.43,1.83c1.057,0.459,2.167,0.688,3.332,0.688c0.656,0,1.149-0.082,1.48-0.247
				c0.33-0.164,0.498-0.411,0.503-0.741c0.495,0.322,1.059,0.571,1.688,0.747c0.63,0.177,1.262,0.265,1.895,0.265
				c1.906,0,3.042-0.311,3.407-0.934C21.78,18.241,21.59,17.503,20.844,16.65z M13.122,18.494c-0.221,0.116-0.542,0.175-0.964,0.175
				c-0.469,0-0.921-0.119-1.356-0.358c-0.435-0.238-0.84-0.59-1.215-1.056c-0.539-0.702-0.763-1.229-0.673-1.579
				c0.09-0.352,0.541-0.526,1.354-0.526c0.164,0,0.334,0.007,0.512,0.021c0.177,0.014,0.36,0.029,0.551,0.049l2.047,2.63
				C13.428,18.162,13.343,18.378,13.122,18.494z"/>
		</g>
	</g>
</g>
<g id="_x40__1_" enable-background="new    ">
	<g id="_x40_">
		<g>
			<path fill-rule="evenodd" clip-rule="evenodd" fill="#808D8E" d="M24.018,3.266c-1.621-1.859-3.959-2.789-7.014-2.789
				c-3.109,0-5.602,0.982-7.477,2.947s-2.883,4.623-3.023,7.975c-0.133,3.383,0.652,6.047,2.355,7.992s4.133,2.918,7.289,2.918
				c0.773,0,1.564-0.092,2.373-0.275s1.475-0.439,1.998-0.768l-0.445-1.945c-0.516,0.219-1.127,0.4-1.834,0.545
				s-1.389,0.217-2.045,0.217c-2.359,0-4.17-0.777-5.432-2.332s-1.826-3.672-1.693-6.352c0.117-2.75,0.871-4.922,2.262-6.516
				s3.266-2.391,5.625-2.391c2.43,0,4.227,0.74,5.391,2.221s1.684,3.545,1.559,6.193c-0.063,1.281-0.357,2.342-0.885,3.182
				s-1.229,1.26-2.104,1.26c-0.219,0-0.393-0.127-0.521-0.381s-0.174-0.721-0.135-1.4l0.598-6.633h-0.059l0.035-0.047
				c-0.688-0.422-1.318-0.734-1.893-0.938s-1.334-0.305-2.279-0.305c-1.344,0-2.486,0.59-3.428,1.77s-1.514,2.75-1.717,4.711
				c-0.164,1.531,0.063,2.76,0.68,3.686s1.508,1.389,2.672,1.389c0.656,0,1.229-0.166,1.717-0.498s0.893-0.83,1.213-1.494
				c0.188,0.648,0.512,1.15,0.973,1.506s1.008,0.533,1.641,0.533c1.906,0,3.34-0.627,4.301-1.881s1.477-2.74,1.547-4.459
				C26.387,7.672,25.639,5.125,24.018,3.266z M17.648,13.32c-0.25,0.633-0.541,1.066-0.873,1.301s-0.709,0.352-1.131,0.352
				c-0.469,0-0.807-0.24-1.014-0.721s-0.275-1.189-0.205-2.127c0.133-1.414,0.412-2.475,0.838-3.182s1.045-1.061,1.857-1.061
				c0.164,0,0.328,0.014,0.492,0.041s0.332,0.061,0.504,0.1L17.648,13.32z"/>
		</g>
	</g>
</g>
</svg>
