<?xml version="1.0" encoding="utf-8"?>
<!-- Generator: Adobe Illustrator 15.0.2, SVG Export Plug-In . SVG Version: 6.00 Build 0)  -->
<!DOCTYPE svg PUBLIC "-//W3C//DTD SVG 1.1//EN" "http://www.w3.org/Graphics/SVG/1.1/DTD/svg11.dtd">
<svg version="1.1" id="Calque_1" xmlns="http://www.w3.org/2000/svg" xmlns:xlink="http://www.w3.org/1999/xlink" x="0px" y="0px"
	 width="181px" height="241.043px" viewBox="0 0 181 241.043" enable-background="new 0 0 181 241.043" xml:space="preserve">
<path fill="none" stroke="#808D8E" stroke-miterlimit="10" d="M58,53c0,2.762-2.238,5-5,5H6c-2.761,0-5-2.238-5-5V6
	c0-2.761,2.239-5,5-5h47c2.762,0,5,2.239,5,5V53z"/>
<path id="facebook-icon" fill="#808D8E" d="M33.404,25.835h-3.471V31.5h3.471v16.643h6.674V31.43h4.656l0.496-5.595h-5.152
	c0,0,0-2.089,0-3.188c0-1.318,0.267-1.841,1.539-1.841c1.029,0,3.613,0,3.613,0V15c0,0-3.808,0-4.619,0
	c-4.969,0-7.207,2.187-7.207,6.374C33.404,25.021,33.404,25.835,33.404,25.835z"/>
<g>
	<path fill="none" stroke="#808D8E" stroke-miterlimit="10" d="M58,113c0,2.762-2.238,5-5,5H6c-2.762,0-5-2.238-5-5V66
		c0-2.762,2.238-5,5-5h47c2.762,0,5,2.238,5,5V113z"/>
	<path id="twitter-icon" fill="#808D8E" d="M46.507,78.95c-1.252,0.555-2.596,0.93-4.008,1.098c1.44-0.863,2.548-2.23,3.068-3.859
		c-1.349,0.799-2.842,1.381-4.433,1.693c-1.273-1.356-3.086-2.204-5.092-2.204c-4.506,0-7.817,4.202-6.8,8.569
		c-5.799-0.291-10.942-3.07-14.384-7.293c-1.828,3.137-0.948,7.241,2.16,9.317c-1.144-0.035-2.22-0.349-3.16-0.873
		c-0.076,3.234,2.24,6.259,5.597,6.933c-0.981,0.266-2.058,0.327-3.151,0.119c0.888,2.771,3.467,4.79,6.519,4.846
		c-2.933,2.298-6.629,3.326-10.331,2.89c3.087,1.98,6.757,3.136,10.698,3.136c12.955,0,20.275-10.944,19.834-20.76
		C44.388,81.579,45.57,80.349,46.507,78.95z"/>
</g>
<g>
	<path fill="none" stroke="#808D8E" stroke-miterlimit="10" d="M118,52.957c0,2.762-2.238,5-5,5H66c-2.762,0-5-2.238-5-5v-47
		c0-2.762,2.238-5,5-5h47c2.762,0,5,2.238,5,5V52.957z"/>
	<g id="google-plus-icon">
		<path fill="#808D8E" d="M104.416,21.154h-3.954v3.957h-1.979v-3.957h-3.955v-1.976h3.955v-3.957h1.979v3.957h3.954V21.154z
			 M93.234,37.513c0,2.965-2.706,6.574-9.517,6.574c-4.98,0-9.134-2.148-9.134-5.762c0-2.788,1.765-6.408,10.016-6.408
			c-1.226-1-1.526-2.395-0.777-3.908c-4.831,0-7.304-2.839-7.304-6.446c0-3.527,2.623-6.736,7.976-6.736c1.351,0,8.573,0,8.573,0
			l-1.916,2.012h-2.25c1.587,0.909,2.431,2.782,2.431,4.846c0,1.896-1.043,3.431-2.533,4.582c-2.643,2.044-1.966,3.185,0.804,5.205
			C92.332,33.517,93.234,35.095,93.234,37.513z M87.888,21.814c-0.397-3.034-2.376-5.523-4.685-5.592
			c-2.312-0.069-3.86,2.252-3.461,5.287c0.397,3.035,2.594,5.154,4.905,5.223C86.956,26.801,88.286,24.85,87.888,21.814z
			 M90.271,37.816c0-2.495-2.277-4.873-6.097-4.873c-3.443-0.038-6.359,2.175-6.359,4.741c0,2.617,2.484,4.796,5.929,4.796
			C88.144,42.48,90.271,40.436,90.271,37.816z"/>
	</g>
</g>
<g>
	<path fill="none" stroke="#808D8E" stroke-miterlimit="10" d="M118,113c0,2.762-2.238,5-5,5H66c-2.762,0-5-2.238-5-5V66
		c0-2.762,2.238-5,5-5h47c2.762,0,5,2.238,5,5V113z"/>
	<path id="pinterest-icon" fill="#808D8E" d="M90.285,72.74c-9.147,0-13.76,6.559-13.76,12.027c0,3.312,1.254,6.258,3.942,7.355
		c0.441,0.181,0.836,0.007,0.965-0.481c0.088-0.338,0.299-1.19,0.393-1.545c0.129-0.483,0.079-0.652-0.277-1.073
		c-0.775-0.915-1.271-2.099-1.271-3.775c0-4.866,3.641-9.222,9.479-9.222c5.17,0,8.012,3.159,8.012,7.378
		c0,5.552-2.457,10.237-6.104,10.237c-2.015,0-3.522-1.666-3.039-3.709c0.579-2.439,1.7-5.071,1.7-6.832
		c0-1.576-0.846-2.891-2.597-2.891c-2.06,0-3.713,2.13-3.713,4.983c0,1.817,0.613,3.047,0.613,3.047s-2.106,8.928-2.476,10.491
		c-0.736,3.114-0.111,6.932-0.058,7.316c0.03,0.229,0.324,0.283,0.457,0.11c0.189-0.247,2.643-3.275,3.476-6.3
		c0.236-0.857,1.354-5.293,1.354-5.293c0.669,1.276,2.624,2.399,4.703,2.399c6.189,0,10.389-5.642,10.389-13.194
		C102.475,78.059,97.638,72.74,90.285,72.74z"/>
</g>
<g>
	<path fill="none" stroke="#808D8E" stroke-miterlimit="10" d="M178,53c0,2.762-2.238,5-5,5h-47c-2.762,0-5-2.238-5-5V6
		c0-2.762,2.238-5,5-5h47c2.762,0,5,2.238,5,5V53z"/>
	<path id="linkedin-icon" fill="#808D8E" d="M141.895,18.287c0,2.02-1.625,3.659-3.629,3.659c-2.006,0-3.631-1.639-3.631-3.659
		c0-2.021,1.625-3.659,3.631-3.659C140.27,14.627,141.895,16.265,141.895,18.287z M141.363,24.541h-6.137v19.832h6.137V24.541z
		 M151.174,24.541h-5.885v19.832h5.885c0,0,0-7.355,0-10.41c0-2.789,1.285-4.447,3.742-4.447c2.256,0,3.342,1.594,3.342,4.447
		c0,2.855,0,10.41,0,10.41h6.107c0,0,0-7.244,0-12.557c0-5.311-3.01-7.879-7.215-7.879s-5.977,3.275-5.977,3.275V24.541
		L151.174,24.541z"/>
</g>
<g>
	<path fill="none" stroke="#808D8E" stroke-miterlimit="10" d="M178,113c0,2.762-2.238,5-5,5h-47c-2.762,0-5-2.238-5-5V66
		c0-2.762,2.238-5,5-5h47c2.762,0,5,2.238,5,5V113z"/>
	<path id="xing-icon" fill="#808D8E" d="M152.777,103.125l-6.045-10.977l9.162-16.274h5.602l-9.162,16.274l5.984,10.977H152.777z
		 M144.641,81.266h-5.607l3.143,5.467l-4.672,8.238h5.578l4.676-8.256L144.641,81.266z"/>
</g>
<path fill="none" stroke="#808D8E" stroke-miterlimit="10" d="M58,173.043c0,2.762-2.238,5-5,5H6c-2.761,0-5-2.238-5-5v-47
	c0-2.762,2.239-5,5-5h47c2.762,0,5,2.238,5,5V173.043z"/>
<path id="facebook-icon_1_" fill="#808D8E" d="M33.404,145.878h-3.471v5.665h3.471v16.643h6.674v-16.713h4.656l0.496-5.595h-5.152
	c0,0,0-2.089,0-3.188c0-1.318,0.267-1.841,1.539-1.841c1.029,0,3.613,0,3.613,0v-5.807c0,0-3.808,0-4.619,0
	c-4.969,0-7.207,2.187-7.207,6.374C33.404,145.064,33.404,145.878,33.404,145.878z"/>
<g>
	<path fill="none" stroke="#808D8E" stroke-miterlimit="10" d="M58,233.043c0,2.762-2.238,5-5,5H6c-2.762,0-5-2.238-5-5v-47
		c0-2.762,2.238-5,5-5h47c2.762,0,5,2.238,5,5V233.043z"/>
	<path id="twitter-icon_1_" fill="#808D8E" d="M46.507,198.993c-1.252,0.555-2.596,0.93-4.008,1.098
		c1.44-0.863,2.548-2.23,3.068-3.859c-1.349,0.799-2.842,1.381-4.433,1.693c-1.273-1.356-3.086-2.204-5.092-2.204
		c-4.506,0-7.817,4.202-6.8,8.569c-5.799-0.291-10.942-3.07-14.384-7.293c-1.828,3.137-0.948,7.241,2.16,9.317
		c-1.144-0.035-2.22-0.349-3.16-0.873c-0.076,3.234,2.24,6.259,5.597,6.933c-0.981,0.266-2.058,0.327-3.151,0.119
		c0.888,2.771,3.467,4.79,6.519,4.846c-2.933,2.298-6.629,3.326-10.331,2.89c3.087,1.98,6.757,3.136,10.698,3.136
		c12.955,0,20.275-10.944,19.834-20.76C44.388,201.622,45.57,200.392,46.507,198.993z"/>
</g>
<g>
	<path fill="none" stroke="#808D8E" stroke-miterlimit="10" d="M118,173c0,2.762-2.238,5-5,5H66c-2.762,0-5-2.238-5-5v-47
		c0-2.762,2.238-5,5-5h47c2.762,0,5,2.238,5,5V173z"/>
	<g id="google-plus-icon_1_">
		<path fill="#808D8E" d="M104.416,141.197h-3.954v3.957h-1.979v-3.957h-3.955v-1.976h3.955v-3.956h1.979v3.956h3.954V141.197z
			 M93.234,157.556c0,2.965-2.706,6.574-9.517,6.574c-4.98,0-9.134-2.148-9.134-5.762c0-2.788,1.765-6.408,10.016-6.408
			c-1.226-1-1.526-2.395-0.777-3.908c-4.831,0-7.304-2.839-7.304-6.446c0-3.527,2.623-6.736,7.976-6.736c1.351,0,8.573,0,8.573,0
			l-1.916,2.012h-2.25c1.587,0.909,2.431,2.782,2.431,4.847c0,1.896-1.043,3.431-2.533,4.582c-2.643,2.044-1.966,3.185,0.804,5.205
			C92.332,153.56,93.234,155.138,93.234,157.556z M87.888,141.857c-0.397-3.034-2.376-5.523-4.685-5.592
			c-2.312-0.07-3.86,2.252-3.461,5.286c0.397,3.035,2.594,5.154,4.905,5.223C86.956,146.844,88.286,144.893,87.888,141.857z
			 M90.271,157.859c0-2.495-2.277-4.873-6.097-4.873c-3.443-0.038-6.359,2.175-6.359,4.741c0,2.617,2.484,4.796,5.929,4.796
			C88.144,162.523,90.271,160.479,90.271,157.859z"/>
	</g>
</g>
<g>
	<path fill="none" stroke="#808D8E" stroke-miterlimit="10" d="M118,233.043c0,2.762-2.238,5-5,5H66c-2.762,0-5-2.238-5-5v-47
		c0-2.762,2.238-5,5-5h47c2.762,0,5,2.238,5,5V233.043z"/>
	<path id="pinterest-icon_1_" fill="#808D8E" d="M90.285,192.783c-9.147,0-13.76,6.559-13.76,12.027
		c0,3.312,1.254,6.258,3.942,7.355c0.441,0.181,0.836,0.007,0.965-0.481c0.088-0.338,0.299-1.19,0.393-1.545
		c0.129-0.483,0.079-0.652-0.277-1.073c-0.775-0.915-1.271-2.099-1.271-3.775c0-4.866,3.641-9.222,9.479-9.222
		c5.17,0,8.012,3.159,8.012,7.378c0,5.552-2.457,10.237-6.104,10.237c-2.015,0-3.522-1.666-3.039-3.709
		c0.579-2.439,1.7-5.071,1.7-6.832c0-1.576-0.846-2.891-2.597-2.891c-2.06,0-3.713,2.13-3.713,4.983
		c0,1.817,0.613,3.047,0.613,3.047s-2.106,8.928-2.476,10.491c-0.736,3.114-0.111,6.932-0.058,7.316
		c0.03,0.229,0.324,0.283,0.457,0.11c0.189-0.247,2.643-3.275,3.476-6.3c0.236-0.857,1.354-5.293,1.354-5.293
		c0.669,1.276,2.624,2.399,4.703,2.399c6.189,0,10.389-5.642,10.389-13.194C102.475,198.102,97.638,192.783,90.285,192.783z"/>
</g>
<g>
	<path fill="none" stroke="#808D8E" stroke-miterlimit="10" d="M178,173.043c0,2.762-2.238,5-5,5h-47c-2.762,0-5-2.238-5-5v-47
		c0-2.762,2.238-5,5-5h47c2.762,0,5,2.238,5,5V173.043z"/>
	<path id="linkedin-icon_1_" fill="#808D8E" d="M141.895,138.33c0,2.02-1.625,3.658-3.629,3.658c-2.006,0-3.631-1.639-3.631-3.658
		c0-2.021,1.625-3.66,3.631-3.66C140.27,134.67,141.895,136.309,141.895,138.33z M141.363,144.584h-6.137v19.832h6.137V144.584z
		 M151.174,144.584h-5.885v19.832h5.885c0,0,0-7.355,0-10.41c0-2.789,1.285-4.447,3.742-4.447c2.256,0,3.342,1.594,3.342,4.447
		c0,2.855,0,10.41,0,10.41h6.107c0,0,0-7.244,0-12.557c0-5.311-3.01-7.879-7.215-7.879s-5.977,3.275-5.977,3.275V144.584
		L151.174,144.584z"/>
</g>
<g>
	<rect x="230.5" y="0.521" fill="#42B539" stroke="#7F4040" stroke-miterlimit="10" width="60" height="60"/>
	<rect x="230.5" y="60.521" fill="#42B539" stroke="#7F4040" stroke-miterlimit="10" width="60" height="60"/>
	<rect x="290.5" y="0.478" fill="#42B539" stroke="#7F4040" stroke-miterlimit="10" width="60" height="60"/>
	<rect x="290.5" y="60.521" fill="#42B539" stroke="#7F4040" stroke-miterlimit="10" width="60" height="60"/>
	<rect x="350.5" y="0.521" fill="#42B539" stroke="#7F4040" stroke-miterlimit="10" width="60" height="60"/>
	<rect x="350.5" y="60.521" fill="#42B539" stroke="#7F4040" stroke-miterlimit="10" width="60" height="60"/>
	<rect x="230.5" y="120.564" fill="#42B539" stroke="#7F4040" stroke-miterlimit="10" width="60" height="60"/>
	<rect x="230.5" y="180.564" fill="#42B539" stroke="#7F4040" stroke-miterlimit="10" width="60" height="60"/>
	<rect x="290.5" y="120.521" fill="#42B539" stroke="#7F4040" stroke-miterlimit="10" width="60" height="60"/>
	<rect x="290.5" y="180.564" fill="#42B539" stroke="#7F4040" stroke-miterlimit="10" width="60" height="60"/>
	<rect x="350.5" y="120.564" fill="#42B539" stroke="#7F4040" stroke-miterlimit="10" width="60" height="60"/>
	<rect x="350.5" y="180.564" fill="#42B539" stroke="#7F4040" stroke-miterlimit="10" width="60" height="60"/>
</g>
<g>
	<path fill="none" stroke="#808D8E" stroke-miterlimit="10" d="M178,233.043c0,2.762-2.238,5-5,5h-47c-2.762,0-5-2.238-5-5v-47
		c0-2.762,2.238-5,5-5h47c2.762,0,5,2.238,5,5V233.043z"/>
	<path id="xing-icon_1_" fill="#808D8E" d="M152.777,223.168l-6.045-10.977l9.162-16.274h5.602l-9.162,16.274l5.984,10.977H152.777z
		 M144.641,201.309h-5.607l3.143,5.467l-4.672,8.238h5.578l4.676-8.256L144.641,201.309z"/>
</g>
</svg>
