<?xml version="1.0" encoding="utf-8"?>
<!-- Generator: Adobe Illustrator 15.0.2, SVG Export Plug-In . SVG Version: 6.00 Build 0)  -->
<!DOCTYPE svg PUBLIC "-//W3C//DTD SVG 1.1//EN" "http://www.w3.org/Graphics/SVG/1.1/DTD/svg11.dtd">
<svg version="1.1" id="Calque_1" xmlns="http://www.w3.org/2000/svg" xmlns:xlink="http://www.w3.org/1999/xlink" x="0px" y="0px"
	 width="90px" height="1680px" viewBox="0 0 90 1680" enable-background="new 0 0 90 1680" xml:space="preserve">
<path fill="#909C9D" d="M33.469,35C20.014,35,9.105,45.908,9.105,59.364c0,13.455,10.908,24.363,24.363,24.363
	c13.457,0,24.365-10.908,24.365-24.363C57.834,45.908,46.926,35,33.469,35z M33.469,66.432c-3.902,0-7.066-3.165-7.066-7.067
	c0-3.903,3.164-7.067,7.066-7.067c3.904,0,7.068,3.164,7.068,7.067C40.537,63.267,37.373,66.432,33.469,66.432z"/>
<path fill="#909C9D" d="M59.508,37.231c-2.99,0-5.834,0.618-8.42,1.726c4.037,3.488,7.029,8.15,8.441,13.459
	c3.416,0.012,6.182,2.784,6.182,6.203c0,3.299-2.574,5.987-5.822,6.185c-1.107,5.403-3.834,10.212-7.646,13.91
	c2.271,0.822,4.711,1.293,7.266,1.293c11.813,0,21.387-9.575,21.387-21.388S71.32,37.231,59.508,37.231z"/>
<path fill="#909C9D" d="M33.469,53.114c-3.451,0-6.249,2.798-6.249,6.25c0,3.451,2.798,6.248,6.249,6.248
	c3.453,0,6.25-2.797,6.25-6.248C39.719,55.912,36.922,53.114,33.469,53.114z M33.469,62.64c-1.809,0-3.275-1.467-3.275-3.275
	c0-1.81,1.467-3.276,3.275-3.276c1.811,0,3.277,1.467,3.277,3.276C36.746,61.173,35.279,62.64,33.469,62.64z"/>
<path fill="#909C9D" d="M60.355,61.353c-0.066,0.923-0.18,1.833-0.338,2.728c2.789-0.258,4.977-2.603,4.977-5.46
	c0-2.962-2.35-5.37-5.287-5.476c0.209,0.882,0.373,1.781,0.492,2.694c1.252,0.312,2.184,1.435,2.184,2.782
	C62.383,59.91,61.527,60.989,60.355,61.353z"/>
<path fill="#909C9D" d="M50.555,341.818v1.467h-1.78v1.886h10.057v-1.886H57.05v-1.467H50.555z M41.121,340.143h25.478
	c1.852,0,3.352-1.501,3.352-3.353v-18.438c0-1.852-1.5-3.352-3.352-3.352H41.121c-1.852,0-3.353,1.5-3.353,3.352v18.438
	C37.769,338.642,39.27,340.143,41.121,340.143z M39.759,319.484c0-1.593,1.291-2.884,2.883-2.884H65.08
	c1.592,0,2.883,1.291,2.883,2.884v16.121c0,1.592-1.291,2.883-2.883,2.883H42.642c-1.592,0-2.883-1.291-2.883-2.883V319.484z
	 M43.811,337.489h20.101c1.461,0,2.645-1.185,2.645-2.646v-14.546c0-1.461-1.184-2.645-2.645-2.645H43.811
	c-1.461,0-2.645,1.184-2.645,2.645v14.546C41.166,336.305,42.35,337.489,43.811,337.489z M54.673,353.844v-7.396h-1.416v16.947
	H23.538v-7.768h-1.406v9.378h1.406v-0.018h30.845v-0.681h0.29v-8.87H77.85v-1.593H54.673z M26.09,351.248h-1.179v-0.971h-4.299
	v0.971h-1.179v1.247h6.656V351.248z M33.449,346.949v-12.203c0-1.226-0.994-2.219-2.219-2.219H14.368
	c-1.226,0-2.219,0.993-2.219,2.219v12.203c0,1.225,0.993,2.219,2.219,2.219H31.23C32.455,349.168,33.449,348.174,33.449,346.949z
	 M15.375,348.073c-1.054,0-1.908-0.854-1.908-1.908v-10.67c0-1.054,0.854-1.908,1.908-1.908h14.851c1.054,0,1.908,0.854,1.908,1.908
	v10.67c0,1.054-0.854,1.908-1.908,1.908H15.375z M29.451,334.283H16.148c-0.967,0-1.75,0.784-1.75,1.751v9.627
	c0,0.967,0.783,1.75,1.75,1.75h13.303c0.967,0,1.751-0.783,1.751-1.75v-9.627C31.202,335.067,30.418,334.283,29.451,334.283z"/>
<circle fill="#8E9B9C" cx="42.439" cy="618.47" r="2.56"/>
<path fill="#8E9B9C" d="M60.361,601.828H29.639v5.049h1.742l-0.035,5.191h-1.707v13.549h1.707v5.229h-1.707v5.119h30.723V601.828z
	 M42.546,624.977c-3.771,0-6.827-3.057-6.827-6.826c0-3.771,3.057-6.828,6.827-6.828c3.771,0,6.828,3.057,6.828,6.828
	C49.374,621.92,46.317,624.977,42.546,624.977z M57.801,624.871c0,0.941-0.764,1.707-1.706,1.707s-1.707-0.766-1.707-1.707
	c0-0.625,0.353-1.148,0.854-1.445v-9.027c-0.501-0.299-0.854-0.82-0.854-1.445c0-0.943,0.765-1.707,1.707-1.707
	s1.706,0.764,1.706,1.707c0,0.67-0.396,1.238-0.959,1.518v8.883C57.404,623.633,57.801,624.199,57.801,624.871z"/>
<path fill="#8E9B9C" d="M63.775,595H26.225c-1.885,0-3.414,1.529-3.414,3.414v40.965c0,1.885,1.529,3.414,3.414,3.414l3.414,0.105
	v3.307h5.121l0.106-3.412h20.376v3.412h5.12v-3.52l3.413,0.107c1.886,0,3.414-1.529,3.414-3.414v-40.965
	C67.189,596.529,65.661,595,63.775,595z M62.068,637.672H27.932v-6.826h-1.707v-5.229h1.707v-13.512H26.26v-5.264l1.672,0.035
	v-6.756h34.137V637.672z"/>
<path fill="#FFFFFF" d="M33.469,875c-13.455,0-24.363,10.908-24.363,24.364c0,13.455,10.908,24.363,24.363,24.363
	c13.457,0,24.365-10.908,24.365-24.363C57.834,885.908,46.926,875,33.469,875z M33.469,906.432c-3.902,0-7.066-3.165-7.066-7.067
	c0-3.903,3.164-7.067,7.066-7.067c3.904,0,7.068,3.164,7.068,7.067C40.537,903.267,37.373,906.432,33.469,906.432z"/>
<path fill="#FFFFFF" d="M59.508,877.231c-2.99,0-5.834,0.618-8.42,1.726c4.037,3.488,7.029,8.15,8.441,13.46
	c3.416,0.013,6.182,2.784,6.182,6.203c0,3.299-2.574,5.987-5.822,6.185c-1.107,5.403-3.834,10.212-7.646,13.91
	c2.271,0.822,4.711,1.293,7.266,1.293c11.813,0,21.387-9.575,21.387-21.388S71.32,877.231,59.508,877.231z"/>
<path fill="#FFFFFF" d="M33.469,893.114c-3.451,0-6.249,2.798-6.249,6.25c0,3.451,2.798,6.248,6.249,6.248
	c3.453,0,6.25-2.797,6.25-6.248C39.719,895.912,36.922,893.114,33.469,893.114z M33.469,902.64c-1.809,0-3.275-1.467-3.275-3.275
	c0-1.81,1.467-3.276,3.275-3.276c1.811,0,3.277,1.467,3.277,3.276C36.746,901.173,35.279,902.64,33.469,902.64z"/>
<path fill="#FFFFFF" d="M60.355,901.353c-0.066,0.923-0.18,1.833-0.338,2.728c2.789-0.258,4.977-2.603,4.977-5.46
	c0-2.962-2.35-5.37-5.287-5.476c0.209,0.881,0.373,1.78,0.492,2.693c1.252,0.312,2.184,1.435,2.184,2.782
	C62.383,899.91,61.527,900.989,60.355,901.353z"/>
<path fill="#FFFFFF" d="M50.555,1181.818v1.467h-1.78v1.886h10.057v-1.886H57.05v-1.467H50.555z M41.121,1180.143h25.478
	c1.852,0,3.352-1.501,3.352-3.353v-18.438c0-1.852-1.5-3.352-3.352-3.352H41.121c-1.852,0-3.353,1.5-3.353,3.352v18.438
	C37.769,1178.642,39.27,1180.143,41.121,1180.143z M39.759,1159.484c0-1.593,1.291-2.884,2.883-2.884H65.08
	c1.592,0,2.883,1.291,2.883,2.884v16.121c0,1.592-1.291,2.883-2.883,2.883H42.642c-1.592,0-2.883-1.291-2.883-2.883V1159.484z
	 M43.811,1177.489h20.101c1.461,0,2.645-1.185,2.645-2.646v-14.546c0-1.461-1.184-2.645-2.645-2.645H43.811
	c-1.461,0-2.645,1.184-2.645,2.645v14.546C41.166,1176.305,42.35,1177.489,43.811,1177.489z M54.673,1193.844v-7.396h-1.416v16.947
	H23.538v-7.768h-1.406v9.378h1.406v-0.018h30.845v-0.681h0.29v-8.87H77.85v-1.593H54.673z M26.09,1191.248h-1.179v-0.971h-4.299
	v0.971h-1.179v1.247h6.656V1191.248z M33.449,1186.949v-12.203c0-1.226-0.994-2.219-2.219-2.219H14.368
	c-1.226,0-2.219,0.993-2.219,2.219v12.203c0,1.225,0.993,2.219,2.219,2.219H31.23C32.455,1189.168,33.449,1188.174,33.449,1186.949z
	 M15.375,1188.073c-1.054,0-1.908-0.854-1.908-1.908v-10.67c0-1.054,0.854-1.908,1.908-1.908h14.851
	c1.054,0,1.908,0.854,1.908,1.908v10.67c0,1.054-0.854,1.908-1.908,1.908H15.375z M29.451,1174.283H16.148
	c-0.967,0-1.75,0.784-1.75,1.751v9.627c0,0.967,0.783,1.75,1.75,1.75h13.303c0.967,0,1.751-0.783,1.751-1.75v-9.627
	C31.202,1175.067,30.418,1174.283,29.451,1174.283z"/>
<circle fill="#FFFFFF" cx="42.439" cy="1458.47" r="2.56"/>
<path fill="#FFFFFF" d="M60.361,1441.828H29.639v5.049h1.742l-0.035,5.191h-1.707v13.549h1.707v5.229h-1.707v5.119h30.723V1441.828z
	 M42.546,1464.977c-3.771,0-6.827-3.057-6.827-6.826c0-3.771,3.057-6.828,6.827-6.828c3.771,0,6.828,3.057,6.828,6.828
	C49.374,1461.92,46.317,1464.977,42.546,1464.977z M57.801,1464.871c0,0.941-0.764,1.707-1.706,1.707s-1.707-0.766-1.707-1.707
	c0-0.625,0.353-1.148,0.854-1.445v-9.027c-0.501-0.299-0.854-0.82-0.854-1.445c0-0.943,0.765-1.707,1.707-1.707
	s1.706,0.764,1.706,1.707c0,0.67-0.396,1.238-0.959,1.518v8.883C57.404,1463.633,57.801,1464.199,57.801,1464.871z"/>
<path fill="#FFFFFF" d="M63.775,1435H26.225c-1.885,0-3.414,1.529-3.414,3.414v40.965c0,1.885,1.529,3.414,3.414,3.414l3.414,0.105
	v3.307h5.121l0.106-3.412h20.376v3.412h5.12v-3.52l3.413,0.107c1.886,0,3.414-1.529,3.414-3.414v-40.965
	C67.189,1436.529,65.661,1435,63.775,1435z M62.068,1477.672H27.932v-6.826h-1.707v-5.229h1.707v-13.512H26.26v-5.264l1.672,0.035
	v-6.756h34.137V1477.672z"/>
</svg>
